<svg width="512" height="512" viewBox="0 0 512 512" fill="none" xmlns="http://www.w3.org/2000/svg">
  <defs>
    <filter id="tileShadow" x="38" y="42" width="436" height="436" color-interpolation-filters="sRGB" filterUnits="userSpaceOnUse">
      <feDropShadow dx="0" dy="14" stdDeviation="18" flood-color="#1f2b35" flood-opacity="0.18"/>
    </filter>
    <filter id="markShadow" x="104" y="112" width="304" height="304" color-interpolation-filters="sRGB" filterUnits="userSpaceOnUse">
      <feDropShadow dx="0" dy="6" stdDeviation="5" flood-color="#1f2b35" flood-opacity="0.24"/>
    </filter>
    <linearGradient id="base" x1="92" y1="78" x2="420" y2="438" gradientUnits="userSpaceOnUse">
      <stop stop-color="#FAF8F3"/>
      <stop offset="1" stop-color="#ECE7DE"/>
    </linearGradient>
    <linearGradient id="teal" x1="126" y1="118" x2="244" y2="372" gradientUnits="userSpaceOnUse">
      <stop stop-color="#8BC4CA"/>
      <stop offset="1" stop-color="#5FAFB9"/>
    </linearGradient>
    <linearGradient id="violet" x1="292" y1="134" x2="390" y2="358" gradientUnits="userSpaceOnUse">
      <stop stop-color="#B0A9D4"/>
      <stop offset="1" stop-color="#8F88BE"/>
    </linearGradient>
    <linearGradient id="graphite" x1="128" y1="132" x2="326" y2="370" gradientUnits="userSpaceOnUse">
      <stop stop-color="#354554"/>
      <stop offset="1" stop-color="#202C36"/>
    </linearGradient>
  </defs>
  <g filter="url(#tileShadow)">
    <rect x="76" y="70" width="360" height="360" rx="86" fill="url(#base)"/>
    <rect x="85" y="79" width="342" height="342" rx="78" stroke="white" stroke-opacity="0.7" stroke-width="4"/>
    <rect x="77.5" y="71.5" width="357" height="357" rx="84.5" stroke="#D8D2C8" stroke-opacity="0.8" stroke-width="3"/>
  </g>
  <g filter="url(#markShadow)">
    <path d="M158 305a98 98 0 0 1 0-98" stroke="url(#teal)" stroke-width="36" stroke-linecap="round"/>
    <path d="M176 322a118 118 0 0 1 0-132" stroke="#5FAFB9" stroke-opacity="0.9" stroke-width="4" stroke-linecap="round"/>
    <path d="M184 170a122 122 0 0 1 95-28" stroke="url(#graphite)" stroke-width="36" stroke-linecap="round"/>
    <path d="M154 326a122 122 0 0 0 92 47" stroke="url(#graphite)" stroke-width="36" stroke-linecap="round"/>
    <path d="M346 188a104 104 0 0 1 0 136" stroke="url(#violet)" stroke-width="36" stroke-linecap="round"/>
    <path d="M357 214a84 84 0 0 1 0 84" stroke="white" stroke-opacity="0.5" stroke-width="4" stroke-linecap="round"/>
    <path d="M222 184c0-9 10-15 18-10l94 57c8 5 8 17 0 22l-94 57c-8 5-18-1-18-10V184Z" fill="url(#graphite)"/>
    <path d="M233 202v96l78-48-78-48Z" fill="#435465" opacity="0.22"/>
  </g>
</svg>
