<svg width="64" height="64" viewBox="0 0 64 64" fill="none" xmlns="http://www.w3.org/2000/svg">
  <defs>
    <linearGradient id="base" x1="12" y1="9" x2="52" y2="55" gradientUnits="userSpaceOnUse">
      <stop stop-color="#FAF8F3"/>
      <stop offset="1" stop-color="#ECE7DE"/>
    </linearGradient>
  </defs>
  <rect x="6" y="5" width="52" height="52" rx="13" fill="url(#base)"/>
  <rect x="7" y="6" width="50" height="50" rx="12" stroke="#D8D2C8" stroke-width="1.5"/>
  <path d="M20 38a12 12 0 0 1 0-12" stroke="#69B7C1" stroke-width="5" stroke-linecap="round"/>
  <path d="M23 21a16 16 0 0 1 12-4" stroke="#263642" stroke-width="5" stroke-linecap="round"/>
  <path d="M20 42a16 16 0 0 0 12 5" stroke="#263642" stroke-width="5" stroke-linecap="round"/>
  <path d="M44 24a14 14 0 0 1 0 16" stroke="#9690C4" stroke-width="5" stroke-linecap="round"/>
  <path d="M29 23.5c0-1.6 1.8-2.6 3.1-1.8l12.2 7.5c1.3.8 1.3 2.8 0 3.6l-12.2 7.5c-1.3.8-3.1-.2-3.1-1.8v-15Z" fill="#263642"/>
</svg>
